<svg id="visual" viewBox="0 0 900 600" width="900" height="600" xmlns="http://www.w3.org/2000/svg" xmlns:xlink="http://www.w3.org/1999/xlink" version="1.1"><g stroke-width="1" stroke-linejoin="bevel"><path d="M472 277L464 206L398 210Z" fill="#679ec8" stroke="#679ec8"></path><path d="M398 210L361 298L472 277Z" fill="#87b6d1" stroke="#87b6d1"></path><path d="M398 210L295 228L361 298Z" fill="#76aacc" stroke="#76aacc"></path><path d="M472 277L581 223L464 206Z" fill="#81b2cf" stroke="#81b2cf"></path><path d="M581 223L524 119L464 206Z" fill="#8dbad2" stroke="#8dbad2"></path><path d="M464 206L402 64L398 210Z" fill="#99c1d5" stroke="#99c1d5"></path><path d="M398 210L273 125L295 228Z" fill="#99c1d5" stroke="#99c1d5"></path><path d="M295 228L291 313L361 298Z" fill="#7baece" stroke="#7baece"></path><path d="M361 298L413 419L472 277Z" fill="#76aacc" stroke="#76aacc"></path><path d="M305 402L413 419L361 298Z" fill="#76aacc" stroke="#76aacc"></path><path d="M472 277L638 300L581 223Z" fill="#81b2cf" stroke="#81b2cf"></path><path d="M581 223L562 126L524 119Z" fill="#7baece" stroke="#7baece"></path><path d="M413 419L483 421L472 277Z" fill="#6ca2c9" stroke="#6ca2c9"></path><path d="M423 0L402 64L481 0Z" fill="#99c1d5" stroke="#99c1d5"></path><path d="M524 119L402 64L464 206Z" fill="#679ec8" stroke="#679ec8"></path><path d="M402 64L273 125L398 210Z" fill="#93bdd4" stroke="#93bdd4"></path><path d="M295 228L239 297L291 313Z" fill="#99c1d5" stroke="#99c1d5"></path><path d="M169 232L239 297L295 228Z" fill="#99c1d5" stroke="#99c1d5"></path><path d="M291 313L305 402L361 298Z" fill="#679ec8" stroke="#679ec8"></path><path d="M210 407L305 402L291 313Z" fill="#7baece" stroke="#7baece"></path><path d="M588 430L638 300L472 277Z" fill="#93bdd4" stroke="#93bdd4"></path><path d="M581 223L669 181L562 126Z" fill="#8dbad2" stroke="#8dbad2"></path><path d="M413 419L497 466L483 421Z" fill="#87b6d1" stroke="#87b6d1"></path><path d="M483 421L588 430L472 277Z" fill="#93bdd4" stroke="#93bdd4"></path><path d="M370 497L497 466L413 419Z" fill="#93bdd4" stroke="#93bdd4"></path><path d="M497 466L588 430L483 421Z" fill="#8dbad2" stroke="#8dbad2"></path><path d="M638 300L669 181L581 223Z" fill="#8dbad2" stroke="#8dbad2"></path><path d="M481 0L524 119L600 0Z" fill="#93bdd4" stroke="#93bdd4"></path><path d="M481 0L402 64L524 119Z" fill="#6ca2c9" stroke="#6ca2c9"></path><path d="M402 64L328 0L273 125Z" fill="#71a6cb" stroke="#71a6cb"></path><path d="M600 0L524 119L562 126Z" fill="#93bdd4" stroke="#93bdd4"></path><path d="M305 402L370 497L413 419Z" fill="#76aacc" stroke="#76aacc"></path><path d="M273 125L169 232L295 228Z" fill="#99c1d5" stroke="#99c1d5"></path><path d="M239 297L210 407L291 313Z" fill="#87b6d1" stroke="#87b6d1"></path><path d="M305 402L292 529L370 497Z" fill="#93bdd4" stroke="#93bdd4"></path><path d="M423 0L328 0L402 64Z" fill="#93bdd4" stroke="#93bdd4"></path><path d="M273 125L136 137L169 232Z" fill="#99c1d5" stroke="#99c1d5"></path><path d="M81 309L210 407L239 297Z" fill="#81b2cf" stroke="#81b2cf"></path><path d="M588 430L679 376L638 300Z" fill="#99c1d5" stroke="#99c1d5"></path><path d="M638 300L712 280L669 181Z" fill="#6ca2c9" stroke="#6ca2c9"></path><path d="M679 376L712 280L638 300Z" fill="#8dbad2" stroke="#8dbad2"></path><path d="M588 430L671 465L679 376Z" fill="#76aacc" stroke="#76aacc"></path><path d="M497 466L565 508L588 430Z" fill="#8dbad2" stroke="#8dbad2"></path><path d="M533 600L565 508L497 466Z" fill="#87b6d1" stroke="#87b6d1"></path><path d="M707 62L562 126L669 181Z" fill="#76aacc" stroke="#76aacc"></path><path d="M707 62L600 0L562 126Z" fill="#8dbad2" stroke="#8dbad2"></path><path d="M328 0L187 75L273 125Z" fill="#679ec8" stroke="#679ec8"></path><path d="M187 75L136 137L273 125Z" fill="#81b2cf" stroke="#81b2cf"></path><path d="M115 426L173 478L210 407Z" fill="#679ec8" stroke="#679ec8"></path><path d="M210 407L292 529L305 402Z" fill="#71a6cb" stroke="#71a6cb"></path><path d="M370 497L384 600L497 466Z" fill="#93bdd4" stroke="#93bdd4"></path><path d="M565 508L671 465L588 430Z" fill="#7baece" stroke="#7baece"></path><path d="M785 388L782 289L712 280Z" fill="#9fc5d7" stroke="#9fc5d7"></path><path d="M776 165L707 62L669 181Z" fill="#99c1d5" stroke="#99c1d5"></path><path d="M210 407L173 478L292 529Z" fill="#76aacc" stroke="#76aacc"></path><path d="M81 309L239 297L169 232Z" fill="#679ec8" stroke="#679ec8"></path><path d="M136 137L83 233L169 232Z" fill="#71a6cb" stroke="#71a6cb"></path><path d="M785 388L712 280L679 376Z" fill="#76aacc" stroke="#76aacc"></path><path d="M712 280L776 165L669 181Z" fill="#99c1d5" stroke="#99c1d5"></path><path d="M782 289L776 165L712 280Z" fill="#87b6d1" stroke="#87b6d1"></path><path d="M328 0L174 0L187 75Z" fill="#99c1d5" stroke="#99c1d5"></path><path d="M187 75L115 0L136 137Z" fill="#9fc5d7" stroke="#9fc5d7"></path><path d="M0 112L0 231L83 233Z" fill="#8dbad2" stroke="#8dbad2"></path><path d="M83 233L81 309L169 232Z" fill="#7baece" stroke="#7baece"></path><path d="M315 600L370 497L292 529Z" fill="#81b2cf" stroke="#81b2cf"></path><path d="M315 600L384 600L370 497Z" fill="#87b6d1" stroke="#87b6d1"></path><path d="M565 508L589 600L671 465Z" fill="#8dbad2" stroke="#8dbad2"></path><path d="M801 0L704 0L707 62Z" fill="#93bdd4" stroke="#93bdd4"></path><path d="M707 62L704 0L600 0Z" fill="#87b6d1" stroke="#87b6d1"></path><path d="M81 309L115 426L210 407Z" fill="#76aacc" stroke="#76aacc"></path><path d="M384 600L533 600L497 466Z" fill="#8dbad2" stroke="#8dbad2"></path><path d="M217 600L315 600L292 529Z" fill="#9fc5d7" stroke="#9fc5d7"></path><path d="M811 525L785 388L671 465Z" fill="#81b2cf" stroke="#81b2cf"></path><path d="M671 465L785 388L679 376Z" fill="#9fc5d7" stroke="#9fc5d7"></path><path d="M533 600L589 600L565 508Z" fill="#93bdd4" stroke="#93bdd4"></path><path d="M776 165L792 72L707 62Z" fill="#6ca2c9" stroke="#6ca2c9"></path><path d="M900 124L792 72L776 165Z" fill="#76aacc" stroke="#76aacc"></path><path d="M801 0L792 72L900 0Z" fill="#81b2cf" stroke="#81b2cf"></path><path d="M174 0L115 0L187 75Z" fill="#93bdd4" stroke="#93bdd4"></path><path d="M115 426L129 515L173 478Z" fill="#8dbad2" stroke="#8dbad2"></path><path d="M173 478L217 600L292 529Z" fill="#93bdd4" stroke="#93bdd4"></path><path d="M0 525L129 515L115 426Z" fill="#81b2cf" stroke="#81b2cf"></path><path d="M129 515L217 600L173 478Z" fill="#7baece" stroke="#7baece"></path><path d="M0 112L83 233L136 137Z" fill="#7baece" stroke="#7baece"></path><path d="M83 233L0 262L81 309Z" fill="#93bdd4" stroke="#93bdd4"></path><path d="M81 309L0 426L115 426Z" fill="#71a6cb" stroke="#71a6cb"></path><path d="M0 231L0 262L83 233Z" fill="#76aacc" stroke="#76aacc"></path><path d="M900 163L776 165L782 289Z" fill="#679ec8" stroke="#679ec8"></path><path d="M792 72L801 0L707 62Z" fill="#87b6d1" stroke="#87b6d1"></path><path d="M115 0L0 112L136 137Z" fill="#71a6cb" stroke="#71a6cb"></path><path d="M589 600L722 600L671 465Z" fill="#87b6d1" stroke="#87b6d1"></path><path d="M0 262L0 426L81 309Z" fill="#8dbad2" stroke="#8dbad2"></path><path d="M129 515L96 600L217 600Z" fill="#81b2cf" stroke="#81b2cf"></path><path d="M722 600L811 525L671 465Z" fill="#87b6d1" stroke="#87b6d1"></path><path d="M900 332L900 163L782 289Z" fill="#6ca2c9" stroke="#6ca2c9"></path><path d="M900 332L782 289L785 388Z" fill="#93bdd4" stroke="#93bdd4"></path><path d="M900 393L900 332L785 388Z" fill="#87b6d1" stroke="#87b6d1"></path><path d="M900 163L900 124L776 165Z" fill="#6ca2c9" stroke="#6ca2c9"></path><path d="M0 525L96 600L129 515Z" fill="#8dbad2" stroke="#8dbad2"></path><path d="M900 470L900 393L785 388Z" fill="#9fc5d7" stroke="#9fc5d7"></path><path d="M115 0L0 0L0 112Z" fill="#93bdd4" stroke="#93bdd4"></path><path d="M0 426L0 525L115 426Z" fill="#6ca2c9" stroke="#6ca2c9"></path><path d="M900 600L900 470L811 525Z" fill="#7baece" stroke="#7baece"></path><path d="M811 525L900 470L785 388Z" fill="#76aacc" stroke="#76aacc"></path><path d="M722 600L811 600L811 525Z" fill="#99c1d5" stroke="#99c1d5"></path><path d="M900 124L900 0L792 72Z" fill="#7baece" stroke="#7baece"></path><path d="M0 525L0 600L96 600Z" fill="#8dbad2" stroke="#8dbad2"></path><path d="M811 600L900 600L811 525Z" fill="#81b2cf" stroke="#81b2cf"></path></g></svg>