<svg id="visual" viewBox="0 0 900 100" width="900" height="100" xmlns="http://www.w3.org/2000/svg" xmlns:xlink="http://www.w3.org/1999/xlink" version="1.1"><rect x="0" y="0" width="900" height="100" fill="#2d5675"></rect><path d="M0 6L6.5 17.3C13 28.7 26 51.3 39 59.7C52 68 65 62 78 62.5C91 63 104 70 117.2 68.2C130.3 66.3 143.7 55.7 156.8 47.7C170 39.7 183 34.3 196 36.3C209 38.3 222 47.7 235 55.5C248 63.3 261 69.7 274 60.5C287 51.3 300 26.7 313 23.7C326 20.7 339 39.3 352 43.3C365 47.3 378 36.7 391 39.8C404 43 417 60 430.2 57.5C443.3 55 456.7 33 469.8 24C483 15 496 19 509 30.5C522 42 535 61 548 60.8C561 60.7 574 41.3 587 41C600 40.7 613 59.3 626 64.8C639 70.3 652 62.7 665 55.5C678 48.3 691 41.7 704 41.7C717 41.7 730 48.3 743.2 57.5C756.3 66.7 769.7 78.3 782.8 72.8C796 67.3 809 44.7 822 37.5C835 30.3 848 38.7 861 49.8C874 61 887 75 893.5 82L900 89L900 101L893.5 101C887 101 874 101 861 101C848 101 835 101 822 101C809 101 796 101 782.8 101C769.7 101 756.3 101 743.2 101C730 101 717 101 704 101C691 101 678 101 665 101C652 101 639 101 626 101C613 101 600 101 587 101C574 101 561 101 548 101C535 101 522 101 509 101C496 101 483 101 469.8 101C456.7 101 443.3 101 430.2 101C417 101 404 101 391 101C378 101 365 101 352 101C339 101 326 101 313 101C300 101 287 101 274 101C261 101 248 101 235 101C222 101 209 101 196 101C183 101 170 101 156.8 101C143.7 101 130.3 101 117.2 101C104 101 91 101 78 101C65 101 52 101 39 101C26 101 13 101 6.5 101L0 101Z" fill="#ff665b"></path><path d="M0 64L6.5 62.2C13 60.3 26 56.7 39 58.7C52 60.7 65 68.3 78 69.8C91 71.3 104 66.7 117.2 70C130.3 73.3 143.7 84.7 156.8 89.7C170 94.7 183 93.3 196 80.5C209 67.7 222 43.3 235 43.7C248 44 261 69 274 72.2C287 75.3 300 56.7 313 50.5C326 44.3 339 50.7 352 54.5C365 58.3 378 59.7 391 51.7C404 43.7 417 26.3 430.2 30.5C443.3 34.7 456.7 60.3 469.8 72C483 83.7 496 81.3 509 74.3C522 67.3 535 55.7 548 57.8C561 60 574 76 587 73.3C600 70.7 613 49.3 626 35.8C639 22.3 652 16.7 665 18.2C678 19.7 691 28.3 704 36.5C717 44.7 730 52.3 743.2 54.5C756.3 56.7 769.7 53.3 782.8 58.2C796 63 809 76 822 81.7C835 87.3 848 85.7 861 86.5C874 87.3 887 90.7 893.5 92.3L900 94L900 101L893.5 101C887 101 874 101 861 101C848 101 835 101 822 101C809 101 796 101 782.8 101C769.7 101 756.3 101 743.2 101C730 101 717 101 704 101C691 101 678 101 665 101C652 101 639 101 626 101C613 101 600 101 587 101C574 101 561 101 548 101C535 101 522 101 509 101C496 101 483 101 469.8 101C456.7 101 443.3 101 430.2 101C417 101 404 101 391 101C378 101 365 101 352 101C339 101 326 101 313 101C300 101 287 101 274 101C261 101 248 101 235 101C222 101 209 101 196 101C183 101 170 101 156.8 101C143.7 101 130.3 101 117.2 101C104 101 91 101 78 101C65 101 52 101 39 101C26 101 13 101 6.5 101L0 101Z" fill="#ed5b63"></path><path d="M0 37L6.5 41.8C13 46.7 26 56.3 39 61.2C52 66 65 66 78 59C91 52 104 38 117.2 40.8C130.3 43.7 143.7 63.3 156.8 75.3C170 87.3 183 91.7 196 89.8C209 88 222 80 235 70.3C248 60.7 261 49.3 274 46.8C287 44.3 300 50.7 313 56C326 61.3 339 65.7 352 59C365 52.3 378 34.7 391 34.3C404 34 417 51 430.2 60.5C443.3 70 456.7 72 469.8 72.2C483 72.3 496 70.7 509 70.7C522 70.7 535 72.3 548 69.5C561 66.7 574 59.3 587 62.5C600 65.7 613 79.3 626 86.3C639 93.3 652 93.7 665 94.2C678 94.7 691 95.3 704 87.2C717 79 730 62 743.2 49.3C756.3 36.7 769.7 28.3 782.8 31.5C796 34.7 809 49.3 822 54.7C835 60 848 56 861 52.2C874 48.3 887 44.7 893.5 42.8L900 41L900 101L893.5 101C887 101 874 101 861 101C848 101 835 101 822 101C809 101 796 101 782.8 101C769.7 101 756.3 101 743.2 101C730 101 717 101 704 101C691 101 678 101 665 101C652 101 639 101 626 101C613 101 600 101 587 101C574 101 561 101 548 101C535 101 522 101 509 101C496 101 483 101 469.8 101C456.7 101 443.3 101 430.2 101C417 101 404 101 391 101C378 101 365 101 352 101C339 101 326 101 313 101C300 101 287 101 274 101C261 101 248 101 235 101C222 101 209 101 196 101C183 101 170 101 156.8 101C143.7 101 130.3 101 117.2 101C104 101 91 101 78 101C65 101 52 101 39 101C26 101 13 101 6.5 101L0 101Z" fill="#d95369"></path><path d="M0 41L6.5 44.5C13 48 26 55 39 59.2C52 63.3 65 64.7 78 59.7C91 54.7 104 43.3 117.2 43C130.3 42.7 143.7 53.3 156.8 55.8C170 58.3 183 52.7 196 50.5C209 48.3 222 49.7 235 50.3C248 51 261 51 274 49.3C287 47.7 300 44.3 313 42.7C326 41 339 41 352 45.2C365 49.3 378 57.7 391 56.7C404 55.7 417 45.3 430.2 40.3C443.3 35.3 456.7 35.7 469.8 45.8C483 56 496 76 509 79.7C522 83.3 535 70.7 548 64.3C561 58 574 58 587 58.3C600 58.7 613 59.3 626 60.2C639 61 652 62 665 66.2C678 70.3 691 77.7 704 75.3C717 73 730 61 743.2 62.2C756.3 63.3 769.7 77.7 782.8 74C796 70.3 809 48.7 822 43.8C835 39 848 51 861 52.8C874 54.7 887 46.3 893.5 42.2L900 38L900 101L893.5 101C887 101 874 101 861 101C848 101 835 101 822 101C809 101 796 101 782.8 101C769.7 101 756.3 101 743.2 101C730 101 717 101 704 101C691 101 678 101 665 101C652 101 639 101 626 101C613 101 600 101 587 101C574 101 561 101 548 101C535 101 522 101 509 101C496 101 483 101 469.8 101C456.7 101 443.3 101 430.2 101C417 101 404 101 391 101C378 101 365 101 352 101C339 101 326 101 313 101C300 101 287 101 274 101C261 101 248 101 235 101C222 101 209 101 196 101C183 101 170 101 156.8 101C143.7 101 130.3 101 117.2 101C104 101 91 101 78 101C65 101 52 101 39 101C26 101 13 101 6.5 101L0 101Z" fill="#c44d6c"></path><path d="M0 36L6.5 45.3C13 54.7 26 73.3 39 78.8C52 84.3 65 76.7 78 76.5C91 76.3 104 83.7 117.2 80.5C130.3 77.3 143.7 63.7 156.8 63.7C170 63.7 183 77.3 196 83.7C209 90 222 89 235 87.3C248 85.7 261 83.3 274 80.2C287 77 300 73 313 75.2C326 77.3 339 85.7 352 82C365 78.3 378 62.7 391 59C404 55.3 417 63.7 430.2 72C443.3 80.3 456.7 88.7 469.8 90.2C483 91.7 496 86.3 509 76.5C522 66.7 535 52.3 548 47.7C561 43 574 48 587 51C600 54 613 55 626 56.3C639 57.7 652 59.3 665 64.3C678 69.3 691 77.7 704 74.5C717 71.3 730 56.7 743.2 55.2C756.3 53.7 769.7 65.3 782.8 66.8C796 68.3 809 59.7 822 58.2C835 56.7 848 62.3 861 59.5C874 56.7 887 45.3 893.5 39.7L900 34L900 101L893.5 101C887 101 874 101 861 101C848 101 835 101 822 101C809 101 796 101 782.8 101C769.7 101 756.3 101 743.2 101C730 101 717 101 704 101C691 101 678 101 665 101C652 101 639 101 626 101C613 101 600 101 587 101C574 101 561 101 548 101C535 101 522 101 509 101C496 101 483 101 469.8 101C456.7 101 443.3 101 430.2 101C417 101 404 101 391 101C378 101 365 101 352 101C339 101 326 101 313 101C300 101 287 101 274 101C261 101 248 101 235 101C222 101 209 101 196 101C183 101 170 101 156.8 101C143.7 101 130.3 101 117.2 101C104 101 91 101 78 101C65 101 52 101 39 101C26 101 13 101 6.5 101L0 101Z" fill="#ad486d"></path><path d="M0 86L6.5 88.2C13 90.3 26 94.7 39 87.7C52 80.7 65 62.3 78 54.8C91 47.3 104 50.7 117.2 54.2C130.3 57.7 143.7 61.3 156.8 60.3C170 59.3 183 53.7 196 51.8C209 50 222 52 235 58.3C248 64.7 261 75.3 274 81.5C287 87.7 300 89.3 313 83.8C326 78.3 339 65.7 352 64.3C365 63 378 73 391 70.5C404 68 417 53 430.2 50.8C443.3 48.7 456.7 59.3 469.8 61.5C483 63.7 496 57.3 509 54.2C522 51 535 51 548 57.8C561 64.7 574 78.3 587 80.2C600 82 613 72 626 72.5C639 73 652 84 665 88.5C678 93 691 91 704 86C717 81 730 73 743.2 73.8C756.3 74.7 769.7 84.3 782.8 84.5C796 84.7 809 75.3 822 73.3C835 71.3 848 76.7 861 75C874 73.3 887 64.7 893.5 60.3L900 56L900 101L893.5 101C887 101 874 101 861 101C848 101 835 101 822 101C809 101 796 101 782.8 101C769.7 101 756.3 101 743.2 101C730 101 717 101 704 101C691 101 678 101 665 101C652 101 639 101 626 101C613 101 600 101 587 101C574 101 561 101 548 101C535 101 522 101 509 101C496 101 483 101 469.8 101C456.7 101 443.3 101 430.2 101C417 101 404 101 391 101C378 101 365 101 352 101C339 101 326 101 313 101C300 101 287 101 274 101C261 101 248 101 235 101C222 101 209 101 196 101C183 101 170 101 156.8 101C143.7 101 130.3 101 117.2 101C104 101 91 101 78 101C65 101 52 101 39 101C26 101 13 101 6.5 101L0 101Z" fill="#96446a"></path><path d="M0 48L6.5 55.8C13 63.7 26 79.3 39 79.2C52 79 65 63 78 62.7C91 62.3 104 77.7 117.2 81.3C130.3 85 143.7 77 156.8 73.2C170 69.3 183 69.7 196 71.3C209 73 222 76 235 78.3C248 80.7 261 82.3 274 83C287 83.7 300 83.3 313 78.5C326 73.7 339 64.3 352 63.8C365 63.3 378 71.7 391 72.8C404 74 417 68 430.2 65.2C443.3 62.3 456.7 62.7 469.8 67C483 71.3 496 79.7 509 81C522 82.3 535 76.7 548 77.7C561 78.7 574 86.3 587 88.5C600 90.7 613 87.3 626 79.8C639 72.3 652 60.7 665 58.8C678 57 691 65 704 72.3C717 79.7 730 86.3 743.2 82.5C756.3 78.7 769.7 64.3 782.8 57.5C796 50.7 809 51.3 822 51.8C835 52.3 848 52.7 861 58.2C874 63.7 887 74.3 893.5 79.7L900 85L900 101L893.5 101C887 101 874 101 861 101C848 101 835 101 822 101C809 101 796 101 782.8 101C769.7 101 756.3 101 743.2 101C730 101 717 101 704 101C691 101 678 101 665 101C652 101 639 101 626 101C613 101 600 101 587 101C574 101 561 101 548 101C535 101 522 101 509 101C496 101 483 101 469.8 101C456.7 101 443.3 101 430.2 101C417 101 404 101 391 101C378 101 365 101 352 101C339 101 326 101 313 101C300 101 287 101 274 101C261 101 248 101 235 101C222 101 209 101 196 101C183 101 170 101 156.8 101C143.7 101 130.3 101 117.2 101C104 101 91 101 78 101C65 101 52 101 39 101C26 101 13 101 6.5 101L0 101Z" fill="#7f4065"></path><path d="M0 69L6.5 67.7C13 66.3 26 63.7 39 61.3C52 59 65 57 78 60.2C91 63.3 104 71.7 117.2 73.8C130.3 76 143.7 72 156.8 75.2C170 78.3 183 88.7 196 92.8C209 97 222 95 235 93.2C248 91.3 261 89.7 274 90.3C287 91 300 94 313 92.7C326 91.3 339 85.7 352 79C365 72.3 378 64.7 391 67.2C404 69.7 417 82.3 430.2 84.5C443.3 86.7 456.7 78.3 469.8 74.2C483 70 496 70 509 73.5C522 77 535 84 548 84.3C561 84.7 574 78.3 587 74.2C600 70 613 68 626 71.2C639 74.3 652 82.7 665 84.5C678 86.3 691 81.7 704 78.2C717 74.7 730 72.3 743.2 73.2C756.3 74 769.7 78 782.8 77.5C796 77 809 72 822 72.5C835 73 848 79 861 83.3C874 87.7 887 90.3 893.5 91.7L900 93L900 101L893.5 101C887 101 874 101 861 101C848 101 835 101 822 101C809 101 796 101 782.8 101C769.7 101 756.3 101 743.2 101C730 101 717 101 704 101C691 101 678 101 665 101C652 101 639 101 626 101C613 101 600 101 587 101C574 101 561 101 548 101C535 101 522 101 509 101C496 101 483 101 469.8 101C456.7 101 443.3 101 430.2 101C417 101 404 101 391 101C378 101 365 101 352 101C339 101 326 101 313 101C300 101 287 101 274 101C261 101 248 101 235 101C222 101 209 101 196 101C183 101 170 101 156.8 101C143.7 101 130.3 101 117.2 101C104 101 91 101 78 101C65 101 52 101 39 101C26 101 13 101 6.5 101L0 101Z" fill="#683b5d"></path><path d="M0 75L6.5 75C13 75 26 75 39 75.5C52 76 65 77 78 75.8C91 74.7 104 71.3 117.2 70.3C130.3 69.3 143.7 70.7 156.8 73.7C170 76.7 183 81.3 196 84C209 86.7 222 87.3 235 87.5C248 87.7 261 87.3 274 85.8C287 84.3 300 81.7 313 81.2C326 80.7 339 82.3 352 79.7C365 77 378 70 391 67.8C404 65.7 417 68.3 430.2 72.8C443.3 77.3 456.7 83.7 469.8 83.8C483 84 496 78 509 78.3C522 78.7 535 85.3 548 89C561 92.7 574 93.3 587 88.5C600 83.7 613 73.3 626 72.5C639 71.7 652 80.3 665 83.7C678 87 691 85 704 83.3C717 81.7 730 80.3 743.2 82.8C756.3 85.3 769.7 91.7 782.8 89.5C796 87.3 809 76.7 822 76.5C835 76.3 848 86.7 861 89.8C874 93 887 89 893.5 87L900 85L900 101L893.5 101C887 101 874 101 861 101C848 101 835 101 822 101C809 101 796 101 782.8 101C769.7 101 756.3 101 743.2 101C730 101 717 101 704 101C691 101 678 101 665 101C652 101 639 101 626 101C613 101 600 101 587 101C574 101 561 101 548 101C535 101 522 101 509 101C496 101 483 101 469.8 101C456.7 101 443.3 101 430.2 101C417 101 404 101 391 101C378 101 365 101 352 101C339 101 326 101 313 101C300 101 287 101 274 101C261 101 248 101 235 101C222 101 209 101 196 101C183 101 170 101 156.8 101C143.7 101 130.3 101 117.2 101C104 101 91 101 78 101C65 101 52 101 39 101C26 101 13 101 6.5 101L0 101Z" fill="#543653"></path><path d="M0 74L6.5 73.5C13 73 26 72 39 75C52 78 65 85 78 85C91 85 104 78 117.2 77.2C130.3 76.3 143.7 81.7 156.8 84.5C170 87.3 183 87.7 196 89C209 90.3 222 92.7 235 90.3C248 88 261 81 274 79.8C287 78.7 300 83.3 313 86.8C326 90.3 339 92.7 352 91.5C365 90.3 378 85.7 391 81.3C404 77 417 73 430.2 74.2C443.3 75.3 456.7 81.7 469.8 84.8C483 88 496 88 509 85.3C522 82.7 535 77.3 548 76.2C561 75 574 78 587 81.3C600 84.7 613 88.3 626 89.2C639 90 652 88 665 88.2C678 88.3 691 90.7 704 92.3C717 94 730 95 743.2 95C756.3 95 769.7 94 782.8 90.3C796 86.7 809 80.3 822 80.7C835 81 848 88 861 92.2C874 96.3 887 97.7 893.5 98.3L900 99L900 101L893.5 101C887 101 874 101 861 101C848 101 835 101 822 101C809 101 796 101 782.8 101C769.7 101 756.3 101 743.2 101C730 101 717 101 704 101C691 101 678 101 665 101C652 101 639 101 626 101C613 101 600 101 587 101C574 101 561 101 548 101C535 101 522 101 509 101C496 101 483 101 469.8 101C456.7 101 443.3 101 430.2 101C417 101 404 101 391 101C378 101 365 101 352 101C339 101 326 101 313 101C300 101 287 101 274 101C261 101 248 101 235 101C222 101 209 101 196 101C183 101 170 101 156.8 101C143.7 101 130.3 101 117.2 101C104 101 91 101 78 101C65 101 52 101 39 101C26 101 13 101 6.5 101L0 101Z" fill="#413046"></path><path d="M0 89L6.5 87.7C13 86.3 26 83.7 39 83.7C52 83.7 65 86.3 78 85.5C91 84.7 104 80.3 117.2 80.2C130.3 80 143.7 84 156.8 84.5C170 85 183 82 196 80.2C209 78.3 222 77.7 235 77.2C248 76.7 261 76.3 274 77.2C287 78 300 80 313 81.8C326 83.7 339 85.3 352 86.3C365 87.3 378 87.7 391 86C404 84.3 417 80.7 430.2 81.3C443.3 82 456.7 87 469.8 89.7C483 92.3 496 92.7 509 93C522 93.3 535 93.7 548 92.2C561 90.7 574 87.3 587 85.5C600 83.7 613 83.3 626 84.3C639 85.3 652 87.7 665 87.8C678 88 691 86 704 85.3C717 84.7 730 85.3 743.2 87.3C756.3 89.3 769.7 92.7 782.8 94.7C796 96.7 809 97.3 822 97.2C835 97 848 96 861 93.3C874 90.7 887 86.3 893.5 84.2L900 82L900 101L893.5 101C887 101 874 101 861 101C848 101 835 101 822 101C809 101 796 101 782.8 101C769.7 101 756.3 101 743.2 101C730 101 717 101 704 101C691 101 678 101 665 101C652 101 639 101 626 101C613 101 600 101 587 101C574 101 561 101 548 101C535 101 522 101 509 101C496 101 483 101 469.8 101C456.7 101 443.3 101 430.2 101C417 101 404 101 391 101C378 101 365 101 352 101C339 101 326 101 313 101C300 101 287 101 274 101C261 101 248 101 235 101C222 101 209 101 196 101C183 101 170 101 156.8 101C143.7 101 130.3 101 117.2 101C104 101 91 101 78 101C65 101 52 101 39 101C26 101 13 101 6.5 101L0 101Z" fill="#312938"></path><path d="M0 95L6.5 93.2C13 91.3 26 87.7 39 88C52 88.3 65 92.7 78 93.8C91 95 104 93 117.2 91.2C130.3 89.3 143.7 87.7 156.8 87.8C170 88 183 90 196 91.7C209 93.3 222 94.7 235 93.7C248 92.7 261 89.3 274 88C287 86.7 300 87.3 313 87.3C326 87.3 339 86.7 352 87.8C365 89 378 92 391 91.7C404 91.3 417 87.7 430.2 87.2C443.3 86.7 456.7 89.3 469.8 89.7C483 90 496 88 509 88.8C522 89.7 535 93.3 548 95.2C561 97 574 97 587 95.5C600 94 613 91 626 89.2C639 87.3 652 86.7 665 88.3C678 90 691 94 704 95.2C717 96.3 730 94.7 743.2 94.7C756.3 94.7 769.7 96.3 782.8 96C796 95.7 809 93.3 822 92C835 90.7 848 90.3 861 90.7C874 91 887 92 893.5 92.5L900 93L900 101L893.5 101C887 101 874 101 861 101C848 101 835 101 822 101C809 101 796 101 782.8 101C769.7 101 756.3 101 743.2 101C730 101 717 101 704 101C691 101 678 101 665 101C652 101 639 101 626 101C613 101 600 101 587 101C574 101 561 101 548 101C535 101 522 101 509 101C496 101 483 101 469.8 101C456.7 101 443.3 101 430.2 101C417 101 404 101 391 101C378 101 365 101 352 101C339 101 326 101 313 101C300 101 287 101 274 101C261 101 248 101 235 101C222 101 209 101 196 101C183 101 170 101 156.8 101C143.7 101 130.3 101 117.2 101C104 101 91 101 78 101C65 101 52 101 39 101C26 101 13 101 6.5 101L0 101Z" fill="#242229"></path></svg>