<svg id="visual" viewBox="0 0 900 600" width="900" height="600" xmlns="http://www.w3.org/2000/svg" xmlns:xlink="http://www.w3.org/1999/xlink" version="1.1"><g stroke-width="1" stroke-linejoin="bevel"><path d="M455.6 268L474.8 259.3L438.4 225Z" fill="#f8f8fc" stroke="#f8f8fc"></path><path d="M438.4 225L410.6 216.7L455.6 268Z" fill="#dbdbf2" stroke="#dbdbf2"></path><path d="M453.6 130.7L413.2 172.3L438.4 225Z" fill="#bec0e8" stroke="#bec0e8"></path><path d="M438.4 225L413.2 172.3L410.6 216.7Z" fill="#dbdbf2" stroke="#dbdbf2"></path><path d="M413.2 172.3L371.2 218L410.6 216.7Z" fill="#c6c6ea" stroke="#c6c6ea"></path><path d="M410.6 216.7L334.2 301.3L455.6 268Z" fill="#b7b9e5" stroke="#b7b9e5"></path><path d="M334.2 301.3L429.6 336L455.6 268Z" fill="#f8f8fc" stroke="#f8f8fc"></path><path d="M455.6 268L459.4 354.3L474.8 259.3Z" fill="#f8f8fc" stroke="#f8f8fc"></path><path d="M552.6 289.3L544.1 201.7L474.8 259.3Z" fill="#bec0e8" stroke="#bec0e8"></path><path d="M474.8 259.3L544.1 201.7L438.4 225Z" fill="#bec0e8" stroke="#bec0e8"></path><path d="M545.1 330L552.6 289.3L474.8 259.3Z" fill="#f1f0fa" stroke="#f1f0fa"></path><path d="M429.6 336L459.4 354.3L455.6 268Z" fill="#e9e9f7" stroke="#e9e9f7"></path><path d="M544.1 201.7L453.6 130.7L438.4 225Z" fill="#e2e2f5" stroke="#e2e2f5"></path><path d="M413.2 172.3L339.4 208.7L371.2 218Z" fill="#f8f8fc" stroke="#f8f8fc"></path><path d="M371.2 218L334.2 301.3L410.6 216.7Z" fill="#cdcded" stroke="#cdcded"></path><path d="M373.2 56.7L339.4 208.7L413.2 172.3Z" fill="#f1f0fa" stroke="#f1f0fa"></path><path d="M552.6 289.3L570.1 197.3L544.1 201.7Z" fill="#f8f8fc" stroke="#f8f8fc"></path><path d="M544.1 201.7L521.8 129.7L453.6 130.7Z" fill="#cdcded" stroke="#cdcded"></path><path d="M459.4 354.3L545.1 330L474.8 259.3Z" fill="#cdcded" stroke="#cdcded"></path><path d="M664.3 195.7L610.1 165L570.1 197.3Z" fill="#f1f0fa" stroke="#f1f0fa"></path><path d="M570.1 197.3L521.8 129.7L544.1 201.7Z" fill="#d4d4ef" stroke="#d4d4ef"></path><path d="M339.4 208.7L334.2 301.3L371.2 218Z" fill="#dbdbf2" stroke="#dbdbf2"></path><path d="M429.6 336L382.2 436L459.4 354.3Z" fill="#f8f8fc" stroke="#f8f8fc"></path><path d="M521.8 129.7L477.6 107.3L453.6 130.7Z" fill="#e2e2f5" stroke="#e2e2f5"></path><path d="M453.6 130.7L373.2 56.7L413.2 172.3Z" fill="#bec0e8" stroke="#bec0e8"></path><path d="M334.2 301.3L350.4 343L429.6 336Z" fill="#e9e9f7" stroke="#e9e9f7"></path><path d="M508.8 51.3L465.4 90.3L477.6 107.3Z" fill="#f8f8fc" stroke="#f8f8fc"></path><path d="M477.6 107.3L465.4 90.3L453.6 130.7Z" fill="#e9e9f7" stroke="#e9e9f7"></path><path d="M538.6 386.7L559.1 369.3L545.1 330Z" fill="#c6c6ea" stroke="#c6c6ea"></path><path d="M545.1 330L617.8 329.7L552.6 289.3Z" fill="#d4d4ef" stroke="#d4d4ef"></path><path d="M538.6 386.7L545.1 330L459.4 354.3Z" fill="#c6c6ea" stroke="#c6c6ea"></path><path d="M504.8 403L538.6 386.7L459.4 354.3Z" fill="#e9e9f7" stroke="#e9e9f7"></path><path d="M382.2 436L504.8 403L459.4 354.3Z" fill="#cdcded" stroke="#cdcded"></path><path d="M570.1 197.3L607.8 148L521.8 129.7Z" fill="#dbdbf2" stroke="#dbdbf2"></path><path d="M521.8 129.7L508.8 51.3L477.6 107.3Z" fill="#f8f8fc" stroke="#f8f8fc"></path><path d="M664.3 195.7L570.1 197.3L552.6 289.3Z" fill="#bec0e8" stroke="#bec0e8"></path><path d="M610.1 165L607.8 148L570.1 197.3Z" fill="#dbdbf2" stroke="#dbdbf2"></path><path d="M339.4 208.7L274.2 254.7L334.2 301.3Z" fill="#bec0e8" stroke="#bec0e8"></path><path d="M334.2 301.3L245.9 335L350.4 343Z" fill="#d4d4ef" stroke="#d4d4ef"></path><path d="M252.9 256.7L274.2 254.7L216.9 194Z" fill="#f1f0fa" stroke="#f1f0fa"></path><path d="M606.1 413.7L617.8 329.7L559.1 369.3Z" fill="#e2e2f5" stroke="#e2e2f5"></path><path d="M559.1 369.3L617.8 329.7L545.1 330Z" fill="#e2e2f5" stroke="#e2e2f5"></path><path d="M618.3 100.3L508.8 51.3L521.8 129.7Z" fill="#f1f0fa" stroke="#f1f0fa"></path><path d="M216.9 194L274.2 254.7L339.4 208.7Z" fill="#cdcded" stroke="#cdcded"></path><path d="M373.2 56.7L453.6 130.7L465.4 90.3Z" fill="#d4d4ef" stroke="#d4d4ef"></path><path d="M274.2 254.7L245.9 335L334.2 301.3Z" fill="#e9e9f7" stroke="#e9e9f7"></path><path d="M373.4 39.7L373.2 56.7L416.4 0Z" fill="#f8f8fc" stroke="#f8f8fc"></path><path d="M340.2 469.3L382.2 436L350.4 343Z" fill="#bec0e8" stroke="#bec0e8"></path><path d="M350.4 343L382.2 436L429.6 336Z" fill="#e2e2f5" stroke="#e2e2f5"></path><path d="M617.8 329.7L664.3 195.7L552.6 289.3Z" fill="#dbdbf2" stroke="#dbdbf2"></path><path d="M610.1 165L675.3 164L607.8 148Z" fill="#e9e9f7" stroke="#e9e9f7"></path><path d="M607.8 148L618.3 100.3L521.8 129.7Z" fill="#d4d4ef" stroke="#d4d4ef"></path><path d="M641.1 103.7L618.3 100.3L607.8 148Z" fill="#ffffff" stroke="#ffffff"></path><path d="M416.4 0L373.2 56.7L465.4 90.3Z" fill="#bec0e8" stroke="#bec0e8"></path><path d="M239.9 83.3L216.9 194L339.4 208.7Z" fill="#ffffff" stroke="#ffffff"></path><path d="M538.6 386.7L606.1 413.7L559.1 369.3Z" fill="#bec0e8" stroke="#bec0e8"></path><path d="M617.8 329.7L712.5 269.7L664.3 195.7Z" fill="#f8f8fc" stroke="#f8f8fc"></path><path d="M504.8 403L606.1 413.7L538.6 386.7Z" fill="#d4d4ef" stroke="#d4d4ef"></path><path d="M479.8 475.7L606.1 413.7L504.8 403Z" fill="#e2e2f5" stroke="#e2e2f5"></path><path d="M252.9 256.7L245.9 335L274.2 254.7Z" fill="#f1f0fa" stroke="#f1f0fa"></path><path d="M665.3 115.7L641.1 103.7L607.8 148Z" fill="#dbdbf2" stroke="#dbdbf2"></path><path d="M606.8 0L506.6 0L508.8 51.3Z" fill="#f1f0fa" stroke="#f1f0fa"></path><path d="M712.5 269.7L675.3 164L664.3 195.7Z" fill="#bec0e8" stroke="#bec0e8"></path><path d="M664.3 195.7L675.3 164L610.1 165Z" fill="#c6c6ea" stroke="#c6c6ea"></path><path d="M382.2 436L479.8 475.7L504.8 403Z" fill="#cdcded" stroke="#cdcded"></path><path d="M340.2 469.3L378.4 468.7L382.2 436Z" fill="#c6c6ea" stroke="#c6c6ea"></path><path d="M382.2 436L378.4 468.7L479.8 475.7Z" fill="#e9e9f7" stroke="#e9e9f7"></path><path d="M239.9 83.3L339.4 208.7L373.2 56.7Z" fill="#e9e9f7" stroke="#e9e9f7"></path><path d="M252.9 256.7L201.5 288.3L245.9 335Z" fill="#f8f8fc" stroke="#f8f8fc"></path><path d="M675.3 164L665.3 115.7L607.8 148Z" fill="#e9e9f7" stroke="#e9e9f7"></path><path d="M508.8 51.3L416.4 0L465.4 90.3Z" fill="#f8f8fc" stroke="#f8f8fc"></path><path d="M506.6 0L416.4 0L508.8 51.3Z" fill="#f8f8fc" stroke="#f8f8fc"></path><path d="M606.1 413.7L681.3 345L617.8 329.7Z" fill="#ffffff" stroke="#ffffff"></path><path d="M606.8 0L618.3 100.3L622.1 0Z" fill="#dbdbf2" stroke="#dbdbf2"></path><path d="M606.8 0L508.8 51.3L618.3 100.3Z" fill="#e2e2f5" stroke="#e2e2f5"></path><path d="M479.8 475.7L622.3 433.7L606.1 413.7Z" fill="#e2e2f5" stroke="#e2e2f5"></path><path d="M606.1 413.7L622.3 433.7L681.3 345Z" fill="#c6c6ea" stroke="#c6c6ea"></path><path d="M232.7 415.7L340.2 469.3L350.4 343Z" fill="#f8f8fc" stroke="#f8f8fc"></path><path d="M521.6 589.3L595.1 550.3L479.8 475.7Z" fill="#c6c6ea" stroke="#c6c6ea"></path><path d="M681.3 345L712.5 269.7L617.8 329.7Z" fill="#cdcded" stroke="#cdcded"></path><path d="M675.3 164L696.5 123L665.3 115.7Z" fill="#ffffff" stroke="#ffffff"></path><path d="M216.9 194L201.5 288.3L252.9 256.7Z" fill="#e9e9f7" stroke="#e9e9f7"></path><path d="M245.9 335L225.9 388.3L350.4 343Z" fill="#e2e2f5" stroke="#e2e2f5"></path><path d="M201.5 288.3L212.7 347.7L245.9 335Z" fill="#b7b9e5" stroke="#b7b9e5"></path><path d="M231.7 77.3L239.9 83.3L263.7 30.7Z" fill="#dbdbf2" stroke="#dbdbf2"></path><path d="M263.7 30.7L239.9 83.3L373.2 56.7Z" fill="#cdcded" stroke="#cdcded"></path><path d="M790.8 125L696.5 123L675.3 164Z" fill="#f8f8fc" stroke="#f8f8fc"></path><path d="M682.5 67.3L618.3 100.3L641.1 103.7Z" fill="#bec0e8" stroke="#bec0e8"></path><path d="M212.7 347.7L225.9 388.3L245.9 335Z" fill="#dbdbf2" stroke="#dbdbf2"></path><path d="M313.2 0L373.2 56.7L373.4 39.7Z" fill="#e2e2f5" stroke="#e2e2f5"></path><path d="M239.9 83.3L154.7 144L216.9 194Z" fill="#dbdbf2" stroke="#dbdbf2"></path><path d="M216.9 194L106.5 235L201.5 288.3Z" fill="#c6c6ea" stroke="#c6c6ea"></path><path d="M416.4 0L313.2 0L373.4 39.7Z" fill="#dbdbf2" stroke="#dbdbf2"></path><path d="M177.5 413.7L232.7 415.7L225.9 388.3Z" fill="#f1f0fa" stroke="#f1f0fa"></path><path d="M225.9 388.3L232.7 415.7L350.4 343Z" fill="#d4d4ef" stroke="#d4d4ef"></path><path d="M682.5 67.3L641.1 103.7L665.3 115.7Z" fill="#bec0e8" stroke="#bec0e8"></path><path d="M313.2 0L263.7 30.7L373.2 56.7Z" fill="#e9e9f7" stroke="#e9e9f7"></path><path d="M696.5 123L682.5 67.3L665.3 115.7Z" fill="#b7b9e5" stroke="#b7b9e5"></path><path d="M681.3 345L719.3 366.3L712.5 269.7Z" fill="#bec0e8" stroke="#bec0e8"></path><path d="M622.3 433.7L719.3 366.3L681.3 345Z" fill="#f8f8fc" stroke="#f8f8fc"></path><path d="M682.5 67.3L622.1 0L618.3 100.3Z" fill="#ffffff" stroke="#ffffff"></path><path d="M416.4 0L308.9 -15.3L313.2 0Z" fill="#d4d4ef" stroke="#d4d4ef"></path><path d="M313.2 0L274.9 0L263.7 30.7Z" fill="#c6c6ea" stroke="#c6c6ea"></path><path d="M506.6 0L308.9 -15.3L416.4 0Z" fill="#e9e9f7" stroke="#e9e9f7"></path><path d="M606.8 0L308.9 -15.3L506.6 0Z" fill="#e2e2f5" stroke="#e2e2f5"></path><path d="M622.1 0L308.9 -15.3L606.8 0Z" fill="#e2e2f5" stroke="#e2e2f5"></path><path d="M232.7 415.7L286.9 491.7L340.2 469.3Z" fill="#dbdbf2" stroke="#dbdbf2"></path><path d="M415.4 600L479.8 475.7L378.4 468.7Z" fill="#bec0e8" stroke="#bec0e8"></path><path d="M308.9 -15.3L274.9 0L313.2 0Z" fill="#cdcded" stroke="#cdcded"></path><path d="M263.7 30.7L237.7 0L231.7 77.3Z" fill="#b7b9e5" stroke="#b7b9e5"></path><path d="M251.9 484.3L275.2 496.7L286.9 491.7Z" fill="#c6c6ea" stroke="#c6c6ea"></path><path d="M471.8 589.3L479.8 475.7L415.4 600Z" fill="#f8f8fc" stroke="#f8f8fc"></path><path d="M719.3 366.3L764.8 294.7L712.5 269.7Z" fill="#d4d4ef" stroke="#d4d4ef"></path><path d="M712.5 269.7L790.8 125L675.3 164Z" fill="#e2e2f5" stroke="#e2e2f5"></path><path d="M783.5 75.7L703.5 0L682.5 67.3Z" fill="#f1f0fa" stroke="#f1f0fa"></path><path d="M177.5 413.7L251.9 484.3L232.7 415.7Z" fill="#d4d4ef" stroke="#d4d4ef"></path><path d="M232.7 415.7L251.9 484.3L286.9 491.7Z" fill="#bec0e8" stroke="#bec0e8"></path><path d="M103.5 130.7L154.7 144L231.7 77.3Z" fill="#ffffff" stroke="#ffffff"></path><path d="M231.7 77.3L154.7 144L239.9 83.3Z" fill="#ffffff" stroke="#ffffff"></path><path d="M155.7 383L225.9 388.3L212.7 347.7Z" fill="#b7b9e5" stroke="#b7b9e5"></path><path d="M308.9 -15.3L237.7 0L274.9 0Z" fill="#cdcded" stroke="#cdcded"></path><path d="M274.9 0L237.7 0L263.7 30.7Z" fill="#f1f0fa" stroke="#f1f0fa"></path><path d="M155.7 383L177.5 413.7L225.9 388.3Z" fill="#cdcded" stroke="#cdcded"></path><path d="M152.7 376.3L212.7 347.7L201.5 288.3Z" fill="#dbdbf2" stroke="#dbdbf2"></path><path d="M93.2 335.3L152.7 376.3L201.5 288.3Z" fill="#d4d4ef" stroke="#d4d4ef"></path><path d="M152.7 376.3L155.7 383L212.7 347.7Z" fill="#e2e2f5" stroke="#e2e2f5"></path><path d="M378.4 468.7L340.2 469.3L388.4 594.3Z" fill="#f1f0fa" stroke="#f1f0fa"></path><path d="M479.8 475.7L595.1 550.3L622.3 433.7Z" fill="#b7b9e5" stroke="#b7b9e5"></path><path d="M622.3 433.7L716.5 465.7L719.3 366.3Z" fill="#d4d4ef" stroke="#d4d4ef"></path><path d="M595.1 550.3L716.5 465.7L622.3 433.7Z" fill="#d4d4ef" stroke="#d4d4ef"></path><path d="M821.8 324.3L799.5 273.3L764.8 294.7Z" fill="#dbdbf2" stroke="#dbdbf2"></path><path d="M821.8 324.3L764.8 294.7L719.3 366.3Z" fill="#dbdbf2" stroke="#dbdbf2"></path><path d="M764.8 294.7L799.5 273.3L712.5 269.7Z" fill="#b7b9e5" stroke="#b7b9e5"></path><path d="M282.7 548.3L340.2 469.3L286.9 491.7Z" fill="#bec0e8" stroke="#bec0e8"></path><path d="M682.5 67.3L703.5 0L622.1 0Z" fill="#d4d4ef" stroke="#d4d4ef"></path><path d="M622.1 0L703.5 0L308.9 -15.3Z" fill="#d4d4ef" stroke="#d4d4ef"></path><path d="M783.5 75.7L682.5 67.3L696.5 123Z" fill="#bec0e8" stroke="#bec0e8"></path><path d="M154.7 144L106.5 235L216.9 194Z" fill="#bec0e8" stroke="#bec0e8"></path><path d="M251.9 484.3L282.7 548.3L275.2 496.7Z" fill="#bec0e8" stroke="#bec0e8"></path><path d="M275.2 496.7L282.7 548.3L286.9 491.7Z" fill="#dbdbf2" stroke="#dbdbf2"></path><path d="M280.2 600L282.7 548.3L210.5 600Z" fill="#e9e9f7" stroke="#e9e9f7"></path><path d="M471.8 589.3L521.6 589.3L479.8 475.7Z" fill="#e2e2f5" stroke="#e2e2f5"></path><path d="M799.5 273.3L790.8 125L712.5 269.7Z" fill="#cdcded" stroke="#cdcded"></path><path d="M282.7 548.3L388.4 594.3L340.2 469.3Z" fill="#b7b9e5" stroke="#b7b9e5"></path><path d="M471.8 589.3L556.6 600L521.6 589.3Z" fill="#d4d4ef" stroke="#d4d4ef"></path><path d="M388.4 594.3L415.4 600L378.4 468.7Z" fill="#ffffff" stroke="#ffffff"></path><path d="M177.5 413.7L179.5 544.3L251.9 484.3Z" fill="#f8f8fc" stroke="#f8f8fc"></path><path d="M155.7 383L141.2 417L177.5 413.7Z" fill="#ffffff" stroke="#ffffff"></path><path d="M130.2 408.7L141.2 417L155.7 383Z" fill="#f1f0fa" stroke="#f1f0fa"></path><path d="M130.2 408.7L155.7 383L152.7 376.3Z" fill="#cdcded" stroke="#cdcded"></path><path d="M93.2 335.3L130.2 408.7L152.7 376.3Z" fill="#d4d4ef" stroke="#d4d4ef"></path><path d="M280.2 600L298.9 600L282.7 548.3Z" fill="#b7b9e5" stroke="#b7b9e5"></path><path d="M87.5 221.7L90.2 257.7L106.5 235Z" fill="#ffffff" stroke="#ffffff"></path><path d="M106.5 235L90.2 257.7L201.5 288.3Z" fill="#dbdbf2" stroke="#dbdbf2"></path><path d="M790.8 125L783.5 75.7L696.5 123Z" fill="#e2e2f5" stroke="#e2e2f5"></path><path d="M77.5 159.3L87.5 221.7L154.7 144Z" fill="#b7b9e5" stroke="#b7b9e5"></path><path d="M154.7 144L87.5 221.7L106.5 235Z" fill="#e9e9f7" stroke="#e9e9f7"></path><path d="M754.8 473L752.5 463L716.5 465.7Z" fill="#ffffff" stroke="#ffffff"></path><path d="M716.5 465.7L752.5 463L719.3 366.3Z" fill="#d4d4ef" stroke="#d4d4ef"></path><path d="M83.5 0L103.5 130.7L231.7 77.3Z" fill="#ffffff" stroke="#ffffff"></path><path d="M521.6 589.3L556.6 600L595.1 550.3Z" fill="#f1f0fa" stroke="#f1f0fa"></path><path d="M768.3 499.3L754.8 473L756.5 526.3Z" fill="#b7b9e5" stroke="#b7b9e5"></path><path d="M415.4 600L556.6 600L471.8 589.3Z" fill="#e9e9f7" stroke="#e9e9f7"></path><path d="M556.6 600L563.8 600L595.1 550.3Z" fill="#dbdbf2" stroke="#dbdbf2"></path><path d="M57.5 338L93.2 335.3L90.2 257.7Z" fill="#f1f0fa" stroke="#f1f0fa"></path><path d="M90.2 257.7L93.2 335.3L201.5 288.3Z" fill="#f1f0fa" stroke="#f1f0fa"></path><path d="M752.5 463L821.8 324.3L719.3 366.3Z" fill="#dbdbf2" stroke="#dbdbf2"></path><path d="M900 119.7L815.8 67.3L790.8 125Z" fill="#dbdbf2" stroke="#dbdbf2"></path><path d="M790.8 125L815.8 67.3L783.5 75.7Z" fill="#cdcded" stroke="#cdcded"></path><path d="M563.8 600L571.1 600L595.1 550.3Z" fill="#e2e2f5" stroke="#e2e2f5"></path><path d="M756.5 526.3L716.5 465.7L595.1 550.3Z" fill="#c6c6ea" stroke="#c6c6ea"></path><path d="M752.5 463L900 434.7L821.8 324.3Z" fill="#ffffff" stroke="#ffffff"></path><path d="M103.5 130.7L77.5 159.3L154.7 144Z" fill="#dbdbf2" stroke="#dbdbf2"></path><path d="M87.5 221.7L56.2 214L90.2 257.7Z" fill="#bec0e8" stroke="#bec0e8"></path><path d="M388.4 594.3L298.9 600L415.4 600Z" fill="#cdcded" stroke="#cdcded"></path><path d="M282.7 548.3L298.9 600L388.4 594.3Z" fill="#f1f0fa" stroke="#f1f0fa"></path><path d="M282.7 548.3L251.9 484.3L179.5 544.3Z" fill="#b7b9e5" stroke="#b7b9e5"></path><path d="M571.1 600L619.3 600L595.1 550.3Z" fill="#bec0e8" stroke="#bec0e8"></path><path d="M179.5 544.3L177.5 413.7L141.2 417Z" fill="#f1f0fa" stroke="#f1f0fa"></path><path d="M778.8 0L772.3 0L783.5 75.7Z" fill="#c6c6ea" stroke="#c6c6ea"></path><path d="M783.5 75.7L772.3 0L703.5 0Z" fill="#ffffff" stroke="#ffffff"></path><path d="M703.5 0L772.3 0L308.9 -15.3Z" fill="#c6c6ea" stroke="#c6c6ea"></path><path d="M900 214.7L790.8 125L799.5 273.3Z" fill="#e2e2f5" stroke="#e2e2f5"></path><path d="M77.5 159.3L56.2 214L87.5 221.7Z" fill="#f1f0fa" stroke="#f1f0fa"></path><path d="M815.8 67.3L778.8 0L783.5 75.7Z" fill="#c6c6ea" stroke="#c6c6ea"></path><path d="M772.3 0L778.8 0L308.9 -15.3Z" fill="#d4d4ef" stroke="#d4d4ef"></path><path d="M756.5 526.3L754.8 473L716.5 465.7Z" fill="#b7b9e5" stroke="#b7b9e5"></path><path d="M754.8 473L814.8 521.7L752.5 463Z" fill="#d4d4ef" stroke="#d4d4ef"></path><path d="M179.5 544.3L141.2 417L0 537.7Z" fill="#f8f8fc" stroke="#f8f8fc"></path><path d="M98.2 603.3L179.5 544.3L0 537.7Z" fill="#c6c6ea" stroke="#c6c6ea"></path><path d="M0 297.7L57.5 338L90.2 257.7Z" fill="#e9e9f7" stroke="#e9e9f7"></path><path d="M93.2 335.3L57.5 338L130.2 408.7Z" fill="#f8f8fc" stroke="#f8f8fc"></path><path d="M619.3 600L756.5 526.3L595.1 550.3Z" fill="#c6c6ea" stroke="#c6c6ea"></path><path d="M77.5 159.3L28.2 177.3L56.2 214Z" fill="#f8f8fc" stroke="#f8f8fc"></path><path d="M56.2 214L0 235L90.2 257.7Z" fill="#dbdbf2" stroke="#dbdbf2"></path><path d="M0 78.3L28.2 177.3L77.5 159.3Z" fill="#b7b9e5" stroke="#b7b9e5"></path><path d="M0 78.3L77.5 159.3L103.5 130.7Z" fill="#d4d4ef" stroke="#d4d4ef"></path><path d="M207.7 600L210.5 600L179.5 544.3Z" fill="#f1f0fa" stroke="#f1f0fa"></path><path d="M179.5 544.3L210.5 600L282.7 548.3Z" fill="#d4d4ef" stroke="#d4d4ef"></path><path d="M777.5 600L774.8 536.3L756.5 526.3Z" fill="#d4d4ef" stroke="#d4d4ef"></path><path d="M756.5 526.3L774.8 536.3L768.3 499.3Z" fill="#f8f8fc" stroke="#f8f8fc"></path><path d="M900 434.7L900 295.3L821.8 324.3Z" fill="#f8f8fc" stroke="#f8f8fc"></path><path d="M98.2 603.3L207.7 600L179.5 544.3Z" fill="#c6c6ea" stroke="#c6c6ea"></path><path d="M900 295.3L900 235L799.5 273.3Z" fill="#bec0e8" stroke="#bec0e8"></path><path d="M900 295.3L799.5 273.3L821.8 324.3Z" fill="#c6c6ea" stroke="#c6c6ea"></path><path d="M308.9 -15.3L83.5 0L237.7 0Z" fill="#ffffff" stroke="#ffffff"></path><path d="M237.7 0L83.5 0L231.7 77.3Z" fill="#cdcded" stroke="#cdcded"></path><path d="M900 235L900 214.7L799.5 273.3Z" fill="#e9e9f7" stroke="#e9e9f7"></path><path d="M815.8 67.3L900 0L778.8 0Z" fill="#e9e9f7" stroke="#e9e9f7"></path><path d="M814.8 521.7L754.8 473L768.3 499.3Z" fill="#e2e2f5" stroke="#e2e2f5"></path><path d="M83.5 0L51.2 37.7L103.5 130.7Z" fill="#c6c6ea" stroke="#c6c6ea"></path><path d="M777.5 600L814.8 521.7L774.8 536.3Z" fill="#e9e9f7" stroke="#e9e9f7"></path><path d="M774.8 536.3L814.8 521.7L768.3 499.3Z" fill="#bec0e8" stroke="#bec0e8"></path><path d="M0 78.3L0 235L28.2 177.3Z" fill="#d4d4ef" stroke="#d4d4ef"></path><path d="M28.2 177.3L0 235L56.2 214Z" fill="#e2e2f5" stroke="#e2e2f5"></path><path d="M0 235L0 297.7L90.2 257.7Z" fill="#cdcded" stroke="#cdcded"></path><path d="M57.5 338L0 344L130.2 408.7Z" fill="#b7b9e5" stroke="#b7b9e5"></path><path d="M900 214.7L900 119.7L790.8 125Z" fill="#e2e2f5" stroke="#e2e2f5"></path><path d="M0 297.7L0 322.3L57.5 338Z" fill="#bec0e8" stroke="#bec0e8"></path><path d="M0 322.3L0 344L57.5 338Z" fill="#bec0e8" stroke="#bec0e8"></path><path d="M900 119.7L900 89.3L815.8 67.3Z" fill="#dbdbf2" stroke="#dbdbf2"></path><path d="M619.3 600L777.5 600L756.5 526.3Z" fill="#ffffff" stroke="#ffffff"></path><path d="M814.8 521.7L900 434.7L752.5 463Z" fill="#dbdbf2" stroke="#dbdbf2"></path><path d="M900 471L900 434.7L814.8 521.7Z" fill="#ffffff" stroke="#ffffff"></path><path d="M51.2 37.7L0 78.3L103.5 130.7Z" fill="#bec0e8" stroke="#bec0e8"></path><path d="M0 19.7L0 78.3L51.2 37.7Z" fill="#cdcded" stroke="#cdcded"></path><path d="M900 214.7L902.8 36.7L900 119.7Z" fill="#e2e2f5" stroke="#e2e2f5"></path><path d="M900 119.7L902.8 36.7L900 89.3Z" fill="#ffffff" stroke="#ffffff"></path><path d="M900 89.3L902.8 36.7L815.8 67.3Z" fill="#c6c6ea" stroke="#c6c6ea"></path><path d="M900 235L902.8 36.7L900 214.7Z" fill="#ffffff" stroke="#ffffff"></path><path d="M900 295.3L902.8 36.7L900 235Z" fill="#ffffff" stroke="#ffffff"></path><path d="M900 434.7L902.8 36.7L900 295.3Z" fill="#dbdbf2" stroke="#dbdbf2"></path><path d="M900 571.3L900 471L814.8 521.7Z" fill="#e2e2f5" stroke="#e2e2f5"></path><path d="M900 434.7L900 471L902.8 36.7Z" fill="#cdcded" stroke="#cdcded"></path><path d="M902.8 36.7L900 0L815.8 67.3Z" fill="#f1f0fa" stroke="#f1f0fa"></path><path d="M778.8 0L900 0L308.9 -15.3Z" fill="#ffffff" stroke="#ffffff"></path><path d="M308.9 -15.3L10.2 0L83.5 0Z" fill="#ffffff" stroke="#ffffff"></path><path d="M83.5 0L10.2 0L51.2 37.7Z" fill="#c6c6ea" stroke="#c6c6ea"></path><path d="M10.2 0L0 19.7L51.2 37.7Z" fill="#f8f8fc" stroke="#f8f8fc"></path><path d="M0 537.7L141.2 417L130.2 408.7Z" fill="#e2e2f5" stroke="#e2e2f5"></path><path d="M207.7 600L98.2 603.3L210.5 600Z" fill="#cdcded" stroke="#cdcded"></path><path d="M210.5 600L98.2 603.3L280.2 600Z" fill="#ffffff" stroke="#ffffff"></path><path d="M280.2 600L98.2 603.3L298.9 600Z" fill="#c6c6ea" stroke="#c6c6ea"></path><path d="M298.9 600L98.2 603.3L415.4 600Z" fill="#dbdbf2" stroke="#dbdbf2"></path><path d="M415.4 600L98.2 603.3L556.6 600Z" fill="#e2e2f5" stroke="#e2e2f5"></path><path d="M556.6 600L98.2 603.3L563.8 600Z" fill="#ffffff" stroke="#ffffff"></path><path d="M563.8 600L98.2 603.3L571.1 600Z" fill="#cdcded" stroke="#cdcded"></path><path d="M571.1 600L98.2 603.3L619.3 600Z" fill="#bec0e8" stroke="#bec0e8"></path><path d="M619.3 600L98.2 603.3L777.5 600Z" fill="#b7b9e5" stroke="#b7b9e5"></path><path d="M308.9 -15.3L0 0L10.2 0Z" fill="#c6c6ea" stroke="#c6c6ea"></path><path d="M10.2 0L0 0L0 19.7Z" fill="#d4d4ef" stroke="#d4d4ef"></path><path d="M98.2 603.3L860.8 600L777.5 600Z" fill="#ffffff" stroke="#ffffff"></path><path d="M777.5 600L860.8 600L814.8 521.7Z" fill="#f8f8fc" stroke="#f8f8fc"></path><path d="M0 344L0 537.7L130.2 408.7Z" fill="#c6c6ea" stroke="#c6c6ea"></path><path d="M0 537.7L0 548.3L98.2 603.3Z" fill="#dbdbf2" stroke="#dbdbf2"></path><path d="M860.8 600L900 571.3L814.8 521.7Z" fill="#bec0e8" stroke="#bec0e8"></path><path d="M900 471L900 571.3L902.8 36.7Z" fill="#c6c6ea" stroke="#c6c6ea"></path><path d="M98.2 603.3L900 600L860.8 600Z" fill="#f1f0fa" stroke="#f1f0fa"></path><path d="M860.8 600L900 600L900 571.3Z" fill="#dbdbf2" stroke="#dbdbf2"></path><path d="M900 571.3L900 600L902.8 36.7Z" fill="#bec0e8" stroke="#bec0e8"></path><path d="M0 548.3L6.2 600L98.2 603.3Z" fill="#b7b9e5" stroke="#b7b9e5"></path><path d="M0 548.3L0 600L6.2 600Z" fill="#b7b9e5" stroke="#b7b9e5"></path><path d="M6.2 600L0 600L98.2 603.3Z" fill="#ffffff" stroke="#ffffff"></path></g></svg>