<svg id="visual" viewBox="0 0 900 600" width="900" height="600" xmlns="http://www.w3.org/2000/svg" xmlns:xlink="http://www.w3.org/1999/xlink" version="1.1"><g stroke-width="1" stroke-linejoin="bevel"><path d="M429.4 276L408.2 290.3L422.4 313.7Z" fill="#d4d4ef" stroke="#d4d4ef"></path><path d="M408.2 290.3L390.2 335L422.4 313.7Z" fill="#f1f0fa" stroke="#f1f0fa"></path><path d="M293.2 254L346.2 312.7L408.2 290.3Z" fill="#cdcded" stroke="#cdcded"></path><path d="M408.2 290.3L346.2 312.7L390.2 335Z" fill="#bec0e8" stroke="#bec0e8"></path><path d="M429.4 276L407.2 201.3L408.2 290.3Z" fill="#dbdbf2" stroke="#dbdbf2"></path><path d="M472.4 401.7L528.6 283.3L422.4 313.7Z" fill="#cdcded" stroke="#cdcded"></path><path d="M422.4 313.7L528.6 283.3L429.4 276Z" fill="#e2e2f5" stroke="#e2e2f5"></path><path d="M429.4 276L423.6 189.3L407.2 201.3Z" fill="#bec0e8" stroke="#bec0e8"></path><path d="M482.8 173L423.6 189.3L429.4 276Z" fill="#b7b9e5" stroke="#b7b9e5"></path><path d="M464.6 436L472.4 401.7L408.4 464.3Z" fill="#ffffff" stroke="#ffffff"></path><path d="M390.2 335L472.4 401.7L422.4 313.7Z" fill="#ffffff" stroke="#ffffff"></path><path d="M472.4 401.7L495.4 408.3L528.6 283.3Z" fill="#d4d4ef" stroke="#d4d4ef"></path><path d="M528.6 283.3L482.8 173L429.4 276Z" fill="#f1f0fa" stroke="#f1f0fa"></path><path d="M293.9 195.7L293.2 254L407.2 201.3Z" fill="#d4d4ef" stroke="#d4d4ef"></path><path d="M407.2 201.3L293.2 254L408.2 290.3Z" fill="#c6c6ea" stroke="#c6c6ea"></path><path d="M528.6 283.3L538.6 203.7L482.8 173Z" fill="#ffffff" stroke="#ffffff"></path><path d="M354.4 432L472.4 401.7L390.2 335Z" fill="#dbdbf2" stroke="#dbdbf2"></path><path d="M472.4 401.7L464.6 436L495.4 408.3Z" fill="#f1f0fa" stroke="#f1f0fa"></path><path d="M293.2 254L305.9 383.3L346.2 312.7Z" fill="#bec0e8" stroke="#bec0e8"></path><path d="M346.2 312.7L305.9 383.3L390.2 335Z" fill="#e2e2f5" stroke="#e2e2f5"></path><path d="M305.9 383.3L354.4 432L390.2 335Z" fill="#f8f8fc" stroke="#f8f8fc"></path><path d="M464.6 436L494.8 435L495.4 408.3Z" fill="#bec0e8" stroke="#bec0e8"></path><path d="M495.4 408.3L535.8 408.3L528.6 283.3Z" fill="#bec0e8" stroke="#bec0e8"></path><path d="M550.1 138L454.6 141L482.8 173Z" fill="#e9e9f7" stroke="#e9e9f7"></path><path d="M482.8 173L454.6 141L423.6 189.3Z" fill="#bec0e8" stroke="#bec0e8"></path><path d="M361.2 127.7L293.9 195.7L407.2 201.3Z" fill="#d4d4ef" stroke="#d4d4ef"></path><path d="M494.8 435L535.8 408.3L495.4 408.3Z" fill="#e2e2f5" stroke="#e2e2f5"></path><path d="M528.6 283.3L593.1 297.7L538.6 203.7Z" fill="#cdcded" stroke="#cdcded"></path><path d="M603.1 348.3L589.8 299.7L528.6 283.3Z" fill="#f8f8fc" stroke="#f8f8fc"></path><path d="M361.2 127.7L407.2 201.3L423.6 189.3Z" fill="#e2e2f5" stroke="#e2e2f5"></path><path d="M603.1 348.3L593.1 297.7L589.8 299.7Z" fill="#f1f0fa" stroke="#f1f0fa"></path><path d="M589.8 299.7L593.1 297.7L528.6 283.3Z" fill="#f1f0fa" stroke="#f1f0fa"></path><path d="M591.1 174.3L540.8 169.3L538.6 203.7Z" fill="#ffffff" stroke="#ffffff"></path><path d="M538.6 203.7L540.8 169.3L482.8 173Z" fill="#cdcded" stroke="#cdcded"></path><path d="M354.4 432L408.4 464.3L472.4 401.7Z" fill="#b7b9e5" stroke="#b7b9e5"></path><path d="M512.8 548.3L540.8 474.7L494.8 435Z" fill="#e9e9f7" stroke="#e9e9f7"></path><path d="M354.4 432L380.2 466.7L408.4 464.3Z" fill="#ffffff" stroke="#ffffff"></path><path d="M305.9 530.7L380.2 466.7L354.4 432Z" fill="#ffffff" stroke="#ffffff"></path><path d="M454.6 141L361.2 127.7L423.6 189.3Z" fill="#cdcded" stroke="#cdcded"></path><path d="M535.8 408.3L603.1 348.3L528.6 283.3Z" fill="#f1f0fa" stroke="#f1f0fa"></path><path d="M361.2 127.7L341.9 125L293.9 195.7Z" fill="#c6c6ea" stroke="#c6c6ea"></path><path d="M535.8 408.3L611.3 368L603.1 348.3Z" fill="#ffffff" stroke="#ffffff"></path><path d="M603.1 348.3L631.1 339L593.1 297.7Z" fill="#e2e2f5" stroke="#e2e2f5"></path><path d="M556.1 490.3L611.3 368L535.8 408.3Z" fill="#b7b9e5" stroke="#b7b9e5"></path><path d="M198.9 419L286.7 437L305.9 383.3Z" fill="#b7b9e5" stroke="#b7b9e5"></path><path d="M305.9 383.3L286.7 437L354.4 432Z" fill="#ffffff" stroke="#ffffff"></path><path d="M180.5 360L305.9 383.3L293.2 254Z" fill="#dbdbf2" stroke="#dbdbf2"></path><path d="M591.1 174.3L550.1 138L540.8 169.3Z" fill="#b7b9e5" stroke="#b7b9e5"></path><path d="M540.8 169.3L550.1 138L482.8 173Z" fill="#c6c6ea" stroke="#c6c6ea"></path><path d="M454.6 141L394.4 51.7L361.2 127.7Z" fill="#f1f0fa" stroke="#f1f0fa"></path><path d="M361.2 127.7L394.4 51.7L341.9 125Z" fill="#b7b9e5" stroke="#b7b9e5"></path><path d="M593.1 297.7L591.1 174.3L538.6 203.7Z" fill="#bec0e8" stroke="#bec0e8"></path><path d="M670.3 250.7L591.1 174.3L593.1 297.7Z" fill="#f1f0fa" stroke="#f1f0fa"></path><path d="M611.3 368L631.1 339L603.1 348.3Z" fill="#c6c6ea" stroke="#c6c6ea"></path><path d="M512.8 548.3L494.8 435L464.6 436Z" fill="#b7b9e5" stroke="#b7b9e5"></path><path d="M494.8 435L540.8 474.7L535.8 408.3Z" fill="#bec0e8" stroke="#bec0e8"></path><path d="M699.3 410.3L690.5 320.3L631.1 339Z" fill="#cdcded" stroke="#cdcded"></path><path d="M556.1 490.3L540.8 474.7L512.8 548.3Z" fill="#ffffff" stroke="#ffffff"></path><path d="M341.9 125L241.9 169.3L293.9 195.7Z" fill="#f1f0fa" stroke="#f1f0fa"></path><path d="M293.9 195.7L241.9 169.3L293.2 254Z" fill="#c6c6ea" stroke="#c6c6ea"></path><path d="M550.1 138L469.4 75.3L454.6 141Z" fill="#b7b9e5" stroke="#b7b9e5"></path><path d="M512.8 548.3L464.6 436L408.4 464.3Z" fill="#bec0e8" stroke="#bec0e8"></path><path d="M540.8 474.7L556.1 490.3L535.8 408.3Z" fill="#e2e2f5" stroke="#e2e2f5"></path><path d="M469.4 75.3L394.4 51.7L454.6 141Z" fill="#ffffff" stroke="#ffffff"></path><path d="M341.9 125L225.7 85.3L241.9 169.3Z" fill="#ffffff" stroke="#ffffff"></path><path d="M631.1 339L670.3 250.7L593.1 297.7Z" fill="#f8f8fc" stroke="#f8f8fc"></path><path d="M305.9 530.7L409.2 547.3L380.2 466.7Z" fill="#d4d4ef" stroke="#d4d4ef"></path><path d="M380.2 466.7L409.2 547.3L408.4 464.3Z" fill="#cdcded" stroke="#cdcded"></path><path d="M150.7 262.3L180.5 360L293.2 254Z" fill="#d4d4ef" stroke="#d4d4ef"></path><path d="M286.7 437L305.9 530.7L354.4 432Z" fill="#f8f8fc" stroke="#f8f8fc"></path><path d="M180.5 360L198.9 419L305.9 383.3Z" fill="#f1f0fa" stroke="#f1f0fa"></path><path d="M198.9 419L242.9 485.3L286.7 437Z" fill="#c6c6ea" stroke="#c6c6ea"></path><path d="M242.9 485.3L305.9 530.7L286.7 437Z" fill="#ffffff" stroke="#ffffff"></path><path d="M699.3 410.3L631.1 339L611.3 368Z" fill="#f8f8fc" stroke="#f8f8fc"></path><path d="M631.1 339L690.5 320.3L670.3 250.7Z" fill="#f1f0fa" stroke="#f1f0fa"></path><path d="M485.6 0L430.6 27.7L469.4 75.3Z" fill="#f1f0fa" stroke="#f1f0fa"></path><path d="M469.4 75.3L430.6 27.7L394.4 51.7Z" fill="#e2e2f5" stroke="#e2e2f5"></path><path d="M485.6 0L469.4 75.3L574.8 0Z" fill="#ffffff" stroke="#ffffff"></path><path d="M409.2 547.3L512.8 548.3L408.4 464.3Z" fill="#ffffff" stroke="#ffffff"></path><path d="M556.1 490.3L610.1 523.7L611.3 368Z" fill="#e2e2f5" stroke="#e2e2f5"></path><path d="M738.3 201.3L687.5 219.7L670.3 250.7Z" fill="#d4d4ef" stroke="#d4d4ef"></path><path d="M670.3 250.7L687.5 219.7L591.1 174.3Z" fill="#e9e9f7" stroke="#e9e9f7"></path><path d="M607.8 42.7L469.4 75.3L550.1 138Z" fill="#f8f8fc" stroke="#f8f8fc"></path><path d="M141.2 131L172.5 193.3L241.9 169.3Z" fill="#e9e9f7" stroke="#e9e9f7"></path><path d="M241.9 169.3L172.5 193.3L293.2 254Z" fill="#f8f8fc" stroke="#f8f8fc"></path><path d="M225.7 85.3L341.9 125L298.2 0Z" fill="#f1f0fa" stroke="#f1f0fa"></path><path d="M152.5 245L150.7 262.3L293.2 254Z" fill="#dbdbf2" stroke="#dbdbf2"></path><path d="M512.8 548.3L563.6 537.7L556.1 490.3Z" fill="#f8f8fc" stroke="#f8f8fc"></path><path d="M172.5 193.3L152.5 245L293.2 254Z" fill="#f8f8fc" stroke="#f8f8fc"></path><path d="M150.7 262.3L149.5 369.3L180.5 360Z" fill="#bec0e8" stroke="#bec0e8"></path><path d="M180.5 360L149.5 369.3L198.9 419Z" fill="#cdcded" stroke="#cdcded"></path><path d="M198.9 419L169.7 470.7L242.9 485.3Z" fill="#e9e9f7" stroke="#e9e9f7"></path><path d="M298.2 0L341.9 125L394.4 51.7Z" fill="#dbdbf2" stroke="#dbdbf2"></path><path d="M563.6 537.7L610.1 523.7L556.1 490.3Z" fill="#b7b9e5" stroke="#b7b9e5"></path><path d="M517.8 600L538.6 567.3L512.8 548.3Z" fill="#b7b9e5" stroke="#b7b9e5"></path><path d="M512.8 548.3L538.6 567.3L563.6 537.7Z" fill="#ffffff" stroke="#ffffff"></path><path d="M563.6 537.7L670.1 600L610.1 523.7Z" fill="#f8f8fc" stroke="#f8f8fc"></path><path d="M659.3 515.3L699.3 410.3L611.3 368Z" fill="#e9e9f7" stroke="#e9e9f7"></path><path d="M738.3 201.3L717.3 183L687.5 219.7Z" fill="#f1f0fa" stroke="#f1f0fa"></path><path d="M430.6 27.7L370.4 0L394.4 51.7Z" fill="#f8f8fc" stroke="#f8f8fc"></path><path d="M607.8 42.7L550.1 138L670.3 88.7Z" fill="#cdcded" stroke="#cdcded"></path><path d="M430.6 27.7L485.6 0L370.4 0Z" fill="#bec0e8" stroke="#bec0e8"></path><path d="M152.5 245L127.7 235L150.7 262.3Z" fill="#d4d4ef" stroke="#d4d4ef"></path><path d="M150.7 262.3L111.2 248.7L149.5 369.3Z" fill="#bec0e8" stroke="#bec0e8"></path><path d="M126.7 204.7L127.7 235L152.5 245Z" fill="#bec0e8" stroke="#bec0e8"></path><path d="M126.7 204.7L152.5 245L172.5 193.3Z" fill="#cdcded" stroke="#cdcded"></path><path d="M409.2 547.3L473.6 600L512.8 548.3Z" fill="#b7b9e5" stroke="#b7b9e5"></path><path d="M377.4 600L473.6 600L409.2 547.3Z" fill="#f1f0fa" stroke="#f1f0fa"></path><path d="M310.2 600L377.4 600L305.9 530.7Z" fill="#d4d4ef" stroke="#d4d4ef"></path><path d="M305.9 530.7L377.4 600L409.2 547.3Z" fill="#e2e2f5" stroke="#e2e2f5"></path><path d="M670.3 88.7L550.1 138L591.1 174.3Z" fill="#dbdbf2" stroke="#dbdbf2"></path><path d="M118.2 431L169.7 470.7L198.9 419Z" fill="#bec0e8" stroke="#bec0e8"></path><path d="M242.9 485.3L211.5 536.7L305.9 530.7Z" fill="#b7b9e5" stroke="#b7b9e5"></path><path d="M738.3 201.3L670.3 250.7L759.8 328.7Z" fill="#f1f0fa" stroke="#f1f0fa"></path><path d="M687.5 219.7L717.3 183L591.1 174.3Z" fill="#c6c6ea" stroke="#c6c6ea"></path><path d="M141.2 131L126.7 204.7L172.5 193.3Z" fill="#c6c6ea" stroke="#c6c6ea"></path><path d="M473.6 600L517.8 600L512.8 548.3Z" fill="#d4d4ef" stroke="#d4d4ef"></path><path d="M538.6 567.3L670.1 600L563.6 537.7Z" fill="#f1f0fa" stroke="#f1f0fa"></path><path d="M126.7 204.7L111.2 248.7L127.7 235Z" fill="#d4d4ef" stroke="#d4d4ef"></path><path d="M127.7 235L111.2 248.7L150.7 262.3Z" fill="#bec0e8" stroke="#bec0e8"></path><path d="M149.5 369.3L118.2 431L198.9 419Z" fill="#ffffff" stroke="#ffffff"></path><path d="M717.3 183L670.3 88.7L591.1 174.3Z" fill="#bec0e8" stroke="#bec0e8"></path><path d="M717.3 538.7L659.3 515.3L684.5 592.3Z" fill="#d4d4ef" stroke="#d4d4ef"></path><path d="M610.1 523.7L659.3 515.3L611.3 368Z" fill="#e9e9f7" stroke="#e9e9f7"></path><path d="M370.4 0L298.2 0L394.4 51.7Z" fill="#e2e2f5" stroke="#e2e2f5"></path><path d="M199.5 531.3L211.5 536.7L242.9 485.3Z" fill="#cdcded" stroke="#cdcded"></path><path d="M759.8 328.7L670.3 250.7L690.5 320.3Z" fill="#e2e2f5" stroke="#e2e2f5"></path><path d="M717.3 183L772.8 127.7L670.3 88.7Z" fill="#e2e2f5" stroke="#e2e2f5"></path><path d="M271.9 600L310.2 600L305.9 530.7Z" fill="#f8f8fc" stroke="#f8f8fc"></path><path d="M169.7 470.7L199.5 531.3L242.9 485.3Z" fill="#bec0e8" stroke="#bec0e8"></path><path d="M211.5 536.7L271.9 600L305.9 530.7Z" fill="#bec0e8" stroke="#bec0e8"></path><path d="M128.2 95.3L141.2 131L225.7 85.3Z" fill="#e2e2f5" stroke="#e2e2f5"></path><path d="M225.7 85.3L141.2 131L241.9 169.3Z" fill="#b7b9e5" stroke="#b7b9e5"></path><path d="M126.7 204.7L71.5 185.7L111.2 248.7Z" fill="#d4d4ef" stroke="#d4d4ef"></path><path d="M634.1 30.7L574.8 0L607.8 42.7Z" fill="#f1f0fa" stroke="#f1f0fa"></path><path d="M607.8 42.7L574.8 0L469.4 75.3Z" fill="#e9e9f7" stroke="#e9e9f7"></path><path d="M111.2 248.7L112.2 395.3L149.5 369.3Z" fill="#bec0e8" stroke="#bec0e8"></path><path d="M142.2 600L194.7 565.3L199.5 531.3Z" fill="#d4d4ef" stroke="#d4d4ef"></path><path d="M803.5 392L759.8 328.7L699.3 410.3Z" fill="#cdcded" stroke="#cdcded"></path><path d="M699.3 410.3L759.8 328.7L690.5 320.3Z" fill="#e2e2f5" stroke="#e2e2f5"></path><path d="M670.3 88.7L634.1 30.7L607.8 42.7Z" fill="#e2e2f5" stroke="#e2e2f5"></path><path d="M112.2 395.3L118.2 431L149.5 369.3Z" fill="#ffffff" stroke="#ffffff"></path><path d="M220.7 600L271.9 600L211.5 536.7Z" fill="#e9e9f7" stroke="#e9e9f7"></path><path d="M298.2 0L244.9 0L225.7 85.3Z" fill="#bec0e8" stroke="#bec0e8"></path><path d="M217.5 -0.3L181.7 45.7L225.7 85.3Z" fill="#bec0e8" stroke="#bec0e8"></path><path d="M135.5 600L199.5 531.3L169.7 470.7Z" fill="#dbdbf2" stroke="#dbdbf2"></path><path d="M199.5 531.3L194.7 565.3L211.5 536.7Z" fill="#d4d4ef" stroke="#d4d4ef"></path><path d="M118.2 431L110.2 459.3L169.7 470.7Z" fill="#e2e2f5" stroke="#e2e2f5"></path><path d="M39.2 429.7L110.2 459.3L118.2 431Z" fill="#cdcded" stroke="#cdcded"></path><path d="M39.2 429.7L118.2 431L112.2 395.3Z" fill="#f1f0fa" stroke="#f1f0fa"></path><path d="M181.7 45.7L128.2 95.3L225.7 85.3Z" fill="#d4d4ef" stroke="#d4d4ef"></path><path d="M141.2 131L71.5 185.7L126.7 204.7Z" fill="#bec0e8" stroke="#bec0e8"></path><path d="M244.9 0L217.5 -0.3L225.7 85.3Z" fill="#e2e2f5" stroke="#e2e2f5"></path><path d="M181.7 45.7L77.2 50.7L128.2 95.3Z" fill="#f8f8fc" stroke="#f8f8fc"></path><path d="M220.9 -11.3L217.5 -0.3L244.9 0Z" fill="#bec0e8" stroke="#bec0e8"></path><path d="M220.9 -11.3L244.9 0L298.2 0Z" fill="#cdcded" stroke="#cdcded"></path><path d="M220.9 -11.3L298.2 0L370.4 0Z" fill="#f8f8fc" stroke="#f8f8fc"></path><path d="M220.9 -11.3L370.4 0L485.6 0Z" fill="#dbdbf2" stroke="#dbdbf2"></path><path d="M634.1 30.7L641.3 0L574.8 0Z" fill="#c6c6ea" stroke="#c6c6ea"></path><path d="M574.8 0L220.9 -11.3L485.6 0Z" fill="#bec0e8" stroke="#bec0e8"></path><path d="M663.1 0L641.3 0L634.1 30.7Z" fill="#e9e9f7" stroke="#e9e9f7"></path><path d="M663.1 0L634.1 30.7L670.3 88.7Z" fill="#e2e2f5" stroke="#e2e2f5"></path><path d="M217.5 -0.3L210.5 0L181.7 45.7Z" fill="#d4d4ef" stroke="#d4d4ef"></path><path d="M142.2 600L220.7 600L194.7 565.3Z" fill="#bec0e8" stroke="#bec0e8"></path><path d="M194.7 565.3L220.7 600L211.5 536.7Z" fill="#cdcded" stroke="#cdcded"></path><path d="M827.5 -6.3L220.9 -11.3L574.8 0Z" fill="#c6c6ea" stroke="#c6c6ea"></path><path d="M217.5 -0.3L220.9 -11.3L210.5 0Z" fill="#f1f0fa" stroke="#f1f0fa"></path><path d="M220.9 -11.3L204.7 0L210.5 0Z" fill="#b7b9e5" stroke="#b7b9e5"></path><path d="M210.5 0L204.7 0L181.7 45.7Z" fill="#bec0e8" stroke="#bec0e8"></path><path d="M128.2 95.3L71.5 185.7L141.2 131Z" fill="#cdcded" stroke="#cdcded"></path><path d="M0 374L39.2 429.7L112.2 395.3Z" fill="#bec0e8" stroke="#bec0e8"></path><path d="M816.5 0L663.1 0L670.3 88.7Z" fill="#b7b9e5" stroke="#b7b9e5"></path><path d="M641.3 0L827.5 -6.3L574.8 0Z" fill="#e2e2f5" stroke="#e2e2f5"></path><path d="M670.1 600L659.3 515.3L610.1 523.7Z" fill="#d4d4ef" stroke="#d4d4ef"></path><path d="M659.3 515.3L717.3 538.7L699.3 410.3Z" fill="#b7b9e5" stroke="#b7b9e5"></path><path d="M759.8 328.7L807.8 262.3L738.3 201.3Z" fill="#dbdbf2" stroke="#dbdbf2"></path><path d="M738.3 201.3L772.8 127.7L717.3 183Z" fill="#cdcded" stroke="#cdcded"></path><path d="M815.5 275L807.8 262.3L759.8 328.7Z" fill="#d4d4ef" stroke="#d4d4ef"></path><path d="M807.8 201L772.8 127.7L738.3 201.3Z" fill="#f1f0fa" stroke="#f1f0fa"></path><path d="M832.8 431L803.5 392L829.8 460.7Z" fill="#e2e2f5" stroke="#e2e2f5"></path><path d="M803.5 392L815.5 275L759.8 328.7Z" fill="#bec0e8" stroke="#bec0e8"></path><path d="M807.8 262.3L807.8 201L738.3 201.3Z" fill="#e9e9f7" stroke="#e9e9f7"></path><path d="M517.8 600L670.1 600L538.6 567.3Z" fill="#dbdbf2" stroke="#dbdbf2"></path><path d="M900 222L807.8 201L807.8 262.3Z" fill="#e2e2f5" stroke="#e2e2f5"></path><path d="M670.1 600L684.5 592.3L659.3 515.3Z" fill="#d4d4ef" stroke="#d4d4ef"></path><path d="M670.1 600L695.3 600L684.5 592.3Z" fill="#f1f0fa" stroke="#f1f0fa"></path><path d="M684.5 592.3L695.3 600L717.3 538.7Z" fill="#e9e9f7" stroke="#e9e9f7"></path><path d="M829.8 460.7L803.5 392L699.3 410.3Z" fill="#cdcded" stroke="#cdcded"></path><path d="M0 314.3L112.2 395.3L111.2 248.7Z" fill="#e2e2f5" stroke="#e2e2f5"></path><path d="M135.5 600L142.2 600L199.5 531.3Z" fill="#d4d4ef" stroke="#d4d4ef"></path><path d="M135.5 600L169.7 470.7L110.2 459.3Z" fill="#d4d4ef" stroke="#d4d4ef"></path><path d="M0 528.7L135.5 600L110.2 459.3Z" fill="#e2e2f5" stroke="#e2e2f5"></path><path d="M859.8 100.3L813.5 124.3L900 167.3Z" fill="#b7b9e5" stroke="#b7b9e5"></path><path d="M807.8 201L813.5 124.3L772.8 127.7Z" fill="#bec0e8" stroke="#bec0e8"></path><path d="M772.8 127.7L816.5 0L670.3 88.7Z" fill="#e9e9f7" stroke="#e9e9f7"></path><path d="M204.7 0L77.2 50.7L181.7 45.7Z" fill="#cdcded" stroke="#cdcded"></path><path d="M128.2 95.3L0 136.3L71.5 185.7Z" fill="#d4d4ef" stroke="#d4d4ef"></path><path d="M0 237L0 302.7L111.2 248.7Z" fill="#d4d4ef" stroke="#d4d4ef"></path><path d="M41.2 0L77.2 50.7L204.7 0Z" fill="#e2e2f5" stroke="#e2e2f5"></path><path d="M0 237L111.2 248.7L71.5 185.7Z" fill="#bec0e8" stroke="#bec0e8"></path><path d="M0 302.7L0 314.3L111.2 248.7Z" fill="#f8f8fc" stroke="#f8f8fc"></path><path d="M829.8 460.7L699.3 410.3L717.3 538.7Z" fill="#e9e9f7" stroke="#e9e9f7"></path><path d="M803.5 392L900 301.7L815.5 275Z" fill="#b7b9e5" stroke="#b7b9e5"></path><path d="M815.5 275L900 222L807.8 262.3Z" fill="#ffffff" stroke="#ffffff"></path><path d="M0 136.3L0 237L71.5 185.7Z" fill="#ffffff" stroke="#ffffff"></path><path d="M695.3 600L733.5 600L717.3 538.7Z" fill="#f1f0fa" stroke="#f1f0fa"></path><path d="M733.5 600L778.5 547.7L717.3 538.7Z" fill="#d4d4ef" stroke="#d4d4ef"></path><path d="M0 314.3L0 374L112.2 395.3Z" fill="#e9e9f7" stroke="#e9e9f7"></path><path d="M39.2 429.7L0 464.3L110.2 459.3Z" fill="#e9e9f7" stroke="#e9e9f7"></path><path d="M778.5 547.7L829.8 460.7L717.3 538.7Z" fill="#d4d4ef" stroke="#d4d4ef"></path><path d="M77.2 50.7L0 136.3L128.2 95.3Z" fill="#e9e9f7" stroke="#e9e9f7"></path><path d="M0 374L0 464.3L39.2 429.7Z" fill="#e2e2f5" stroke="#e2e2f5"></path><path d="M900 390.3L803.5 392L832.8 431Z" fill="#f1f0fa" stroke="#f1f0fa"></path><path d="M900 390.3L900 301.7L803.5 392Z" fill="#dbdbf2" stroke="#dbdbf2"></path><path d="M900 167.3L813.5 124.3L807.8 201Z" fill="#e9e9f7" stroke="#e9e9f7"></path><path d="M813.5 124.3L816.5 0L772.8 127.7Z" fill="#e9e9f7" stroke="#e9e9f7"></path><path d="M900 301.7L900 222L815.5 275Z" fill="#e9e9f7" stroke="#e9e9f7"></path><path d="M900 403L900 390.3L832.8 431Z" fill="#d4d4ef" stroke="#d4d4ef"></path><path d="M900 403L832.8 431L900 450.7Z" fill="#cdcded" stroke="#cdcded"></path><path d="M900 450.7L832.8 431L829.8 460.7Z" fill="#b7b9e5" stroke="#b7b9e5"></path><path d="M220.9 -11.3L41.2 0L204.7 0Z" fill="#dbdbf2" stroke="#dbdbf2"></path><path d="M77.2 50.7L0 58.7L0 136.3Z" fill="#d4d4ef" stroke="#d4d4ef"></path><path d="M0 464.3L0 528.7L110.2 459.3Z" fill="#b7b9e5" stroke="#b7b9e5"></path><path d="M41.2 0L0 58.7L77.2 50.7Z" fill="#d4d4ef" stroke="#d4d4ef"></path><path d="M859.8 100.3L816.5 0L813.5 124.3Z" fill="#f8f8fc" stroke="#f8f8fc"></path><path d="M663.1 0L827.5 -6.3L641.3 0Z" fill="#bec0e8" stroke="#bec0e8"></path><path d="M900 222L900 167.3L807.8 201Z" fill="#b7b9e5" stroke="#b7b9e5"></path><path d="M900 56.7L827.5 -6.3L816.5 0Z" fill="#f1f0fa" stroke="#f1f0fa"></path><path d="M900 506.3L900 450.7L829.8 460.7Z" fill="#d4d4ef" stroke="#d4d4ef"></path><path d="M900 506.3L829.8 460.7L778.5 547.7Z" fill="#ffffff" stroke="#ffffff"></path><path d="M900 56.7L816.5 0L859.8 100.3Z" fill="#ffffff" stroke="#ffffff"></path><path d="M816.5 0L827.5 -6.3L663.1 0Z" fill="#bec0e8" stroke="#bec0e8"></path><path d="M733.5 600L834.8 591.3L778.5 547.7Z" fill="#cdcded" stroke="#cdcded"></path><path d="M834.8 591.3L900 506.3L778.5 547.7Z" fill="#f8f8fc" stroke="#f8f8fc"></path><path d="M220.9 -11.3L0 0L41.2 0Z" fill="#bec0e8" stroke="#bec0e8"></path><path d="M41.2 0L0 0L0 58.7Z" fill="#cdcded" stroke="#cdcded"></path><path d="M0 528.7L0 600L135.5 600Z" fill="#dbdbf2" stroke="#dbdbf2"></path><path d="M733.5 600L856.8 600L834.8 591.3Z" fill="#e2e2f5" stroke="#e2e2f5"></path><path d="M834.8 591.3L856.8 600L900 506.3Z" fill="#e9e9f7" stroke="#e9e9f7"></path><path d="M900 167.3L900 56.7L859.8 100.3Z" fill="#b7b9e5" stroke="#b7b9e5"></path><path d="M900 56.7L900 0L827.5 -6.3Z" fill="#bec0e8" stroke="#bec0e8"></path><path d="M900 167.3L901.8 0L900 56.7Z" fill="#cdcded" stroke="#cdcded"></path><path d="M900 56.7L901.8 0L900 0Z" fill="#e2e2f5" stroke="#e2e2f5"></path><path d="M900 0L901.8 0L827.5 -6.3Z" fill="#b7b9e5" stroke="#b7b9e5"></path><path d="M900 222L901.8 0L900 167.3Z" fill="#dbdbf2" stroke="#dbdbf2"></path><path d="M900 301.7L901.8 0L900 222Z" fill="#c6c6ea" stroke="#c6c6ea"></path><path d="M900 390.3L901.8 0L900 301.7Z" fill="#ffffff" stroke="#ffffff"></path><path d="M900 403L901.8 0L900 390.3Z" fill="#f8f8fc" stroke="#f8f8fc"></path><path d="M900 450.7L901.8 0L900 403Z" fill="#f1f0fa" stroke="#f1f0fa"></path><path d="M900 506.3L901.8 0L900 450.7Z" fill="#d4d4ef" stroke="#d4d4ef"></path><path d="M856.8 600L900 600L900 506.3Z" fill="#ffffff" stroke="#ffffff"></path><path d="M900 506.3L900 600L901.8 0Z" fill="#f8f8fc" stroke="#f8f8fc"></path></g></svg>